<svg xmlns="http://www.w3.org/2000/svg" width="59.91" height="40.496" viewBox="0 0 59.91 40.496">
  <path id="Path_50" data-name="Path 50" d="M677.226,479.078a10.847,10.847,0,0,0-5.2-9.314,10.263,10.263,0,0,0-10.454-.086,13.787,13.787,0,0,0-2.8-13.965,12.926,12.926,0,0,0-13.426-3.62,13.408,13.408,0,0,0-9.115,10.753,13.161,13.161,0,0,0-13.6,4.463,14.029,14.029,0,0,0-1.919,14.535,13.361,13.361,0,0,0,11.956,8.023h34.166a10.652,10.652,0,0,0,10.4-10.79Z" transform="translate(-618.316 -450.371)" fill="none" stroke="#000" stroke-miterlimit="10" stroke-width="2"/>
</svg>
