<svg xmlns="http://www.w3.org/2000/svg" width="22.546" height="22.547" viewBox="0 0 22.546 22.547">
  <g id="leaf" transform="translate(-0.004)">
    <path id="Path_9" data-name="Path 9" d="M22.512.317A.512.512,0,0,0,22.038,0C2.156,0,0,8.242,0,11.786c0,4.6,3.5,7.686,8.711,7.686,6.581,0,7.959-6.262,8.7-9.626A17.353,17.353,0,0,1,22.4.874.512.512,0,0,0,22.512.317Z" transform="translate(0)" fill="#009063"/>
    <path id="Path_10" data-name="Path 10" d="M.516,124.086A.512.512,0,0,1,0,123.574c0-3.047,5.283-12.823,13.612-16.859a.512.512,0,0,1,.447.922h0c-8.411,4.076-13.034,13.541-13.034,15.936A.512.512,0,0,1,.516,124.086Z" transform="translate(0 -101.539)" fill="#415342"/>
  </g>
</svg>
