<svg xmlns="http://www.w3.org/2000/svg" width="17.661" height="19.476" viewBox="0 0 17.661 19.476">
  <path id="Icon_simple-email" data-name="Icon simple-email" d="M19.319,8.989A10.044,10.044,0,0,1,19,11.167a6.3,6.3,0,0,1-.847,1.913,4.47,4.47,0,0,1-1.436,1.359,4.053,4.053,0,0,1-2.1.517,3.04,3.04,0,0,1-1.516-.371,2.6,2.6,0,0,1-1.025-1.05,3.248,3.248,0,0,1-2.748,1.38,2.794,2.794,0,0,1-2.4-1.29,4.223,4.223,0,0,1-.6-1.495,6.445,6.445,0,0,1-.078-1.95,9.057,9.057,0,0,1,.594-2.388,6.49,6.49,0,0,1,1.1-1.829A4.644,4.644,0,0,1,9.454,4.8a4.211,4.211,0,0,1,1.835-.408,5.707,5.707,0,0,1,1.1.094,4.493,4.493,0,0,1,.852.256,4.607,4.607,0,0,1,.706.372c.215.139.432.282.647.428l-.533,6.134a2.039,2.039,0,0,0,.016.718,1,1,0,0,0,.219.443.789.789,0,0,0,.355.231,1.319,1.319,0,0,0,1.249-.246,2.661,2.661,0,0,0,.669-.852,5.487,5.487,0,0,0,.45-1.28,8.785,8.785,0,0,0,.2-1.594,10.189,10.189,0,0,0-.251-2.979,5.922,5.922,0,0,0-1.1-2.305,5.12,5.12,0,0,0-1.976-1.485A7.174,7.174,0,0,0,11.005,1.8a6.358,6.358,0,0,0-2.848.621A6.534,6.534,0,0,0,5.994,4.14,8.259,8.259,0,0,0,4.577,6.729a11.665,11.665,0,0,0-.6,3.225,10.725,10.725,0,0,0,.3,3.291,5.944,5.944,0,0,0,1.2,2.359A5.018,5.018,0,0,0,7.525,17.02a7.815,7.815,0,0,0,2.811.47,9.629,9.629,0,0,0,1.845-.2c.3-.061.593-.134.868-.214a6.531,6.531,0,0,0,.747-.268l.386,1.735a4.283,4.283,0,0,1-.836.414,8.048,8.048,0,0,1-.988.286,9.643,9.643,0,0,1-2.064.231A10.824,10.824,0,0,1,6.53,18.87a6.926,6.926,0,0,1-2.743-1.8,7.575,7.575,0,0,1-1.647-2.978,12.7,12.7,0,0,1-.46-4.134,12.608,12.608,0,0,1,.791-3.968A9.819,9.819,0,0,1,4.378,2.834,8.685,8.685,0,0,1,7.285.755,9.1,9.1,0,0,1,11.05,0,9.5,9.5,0,0,1,14.7.654a7.1,7.1,0,0,1,2.634,1.838A7.542,7.542,0,0,1,18.9,5.331,10.857,10.857,0,0,1,19.319,8.989ZM8.867,10.182a4.14,4.14,0,0,0,.214,2.053,1.1,1.1,0,0,0,1.059.694,1.17,1.17,0,0,0,.363-.067,1.293,1.293,0,0,0,.417-.251,2.228,2.228,0,0,0,.424-.511,3.923,3.923,0,0,0,.389-.864l.416-4.766a2.487,2.487,0,0,0-.647-.085,2.239,2.239,0,0,0-1.077.247,2.132,2.132,0,0,0-.763.725A4.26,4.26,0,0,0,9.156,8.55a10.118,10.118,0,0,0-.287,1.631Z" transform="translate(-1.67)" fill="#f9f9f9"/>
</svg>
