<svg xmlns="http://www.w3.org/2000/svg" width="23.202" height="19.49" viewBox="0 0 23.202 19.49">
  <path id="Icon_awesome-phone-alt" data-name="Icon awesome-phone-alt" d="M22.54,13.773l-5.075-1.827a1.227,1.227,0,0,0-1.269.263l-2.248,2.307A15.721,15.721,0,0,1,5.918,7.77L8.665,5.882a.821.821,0,0,0,.313-1.066L6.8.553A1.159,1.159,0,0,0,5.556.023L.843.937A.964.964,0,0,0,0,1.827C0,11.591,9.421,19.49,21.027,19.49a1.065,1.065,0,0,0,1.06-.708l1.088-3.959a.9.9,0,0,0-.635-1.051Z" transform="translate(0 0)" fill="#f9f9f9"/>
</svg>
