<svg xmlns="http://www.w3.org/2000/svg" width="28.583" height="28.583" viewBox="0 0 28.583 28.583">
  <path id="Icon_material-shopping-cart" data-name="Icon material-shopping-cart" d="M10.075,25.867a2.858,2.858,0,1,0,2.858,2.858A2.855,2.855,0,0,0,10.075,25.867ZM1.5,3V5.858H4.358L9.5,16.706l-1.929,3.5a2.763,2.763,0,0,0-.357,1.372,2.867,2.867,0,0,0,2.858,2.858h17.15V21.579H10.675a.354.354,0,0,1-.357-.357l.043-.172,1.286-2.33H22.294a2.845,2.845,0,0,0,2.5-1.472l5.116-9.275a1.4,1.4,0,0,0,.172-.686,1.433,1.433,0,0,0-1.429-1.429H7.517L6.173,3ZM24.367,25.867a2.858,2.858,0,1,0,2.858,2.858A2.855,2.855,0,0,0,24.367,25.867Z" transform="translate(-1.5 -3)" fill="#f9f9f9"/>
</svg>
