<svg xmlns="http://www.w3.org/2000/svg" width="45.128" height="36.652" viewBox="0 0 45.128 36.652">
  <path id="Icon_awesome-twitter" data-name="Icon awesome-twitter" d="M40.489,12.515c.029.4.029.8.029,1.2,0,12.227-9.306,26.315-26.315,26.315A26.136,26.136,0,0,1,0,35.881,19.133,19.133,0,0,0,2.233,36a18.523,18.523,0,0,0,11.482-3.951A9.265,9.265,0,0,1,5.068,25.63a11.663,11.663,0,0,0,1.747.143,9.782,9.782,0,0,0,2.434-.315,9.25,9.25,0,0,1-7.416-9.077v-.114A9.315,9.315,0,0,0,6.013,17.44,9.263,9.263,0,0,1,3.15,5.07a26.29,26.29,0,0,0,19.07,9.678,10.441,10.441,0,0,1-.229-2.119A9.258,9.258,0,0,1,38,6.3a18.209,18.209,0,0,0,5.87-2.233,9.224,9.224,0,0,1-4.066,5.1,18.541,18.541,0,0,0,5.326-1.432,19.882,19.882,0,0,1-4.639,4.782Z" transform="translate(0 -3.381)" fill="#f9f9f9"/>
</svg>
