<svg xmlns="http://www.w3.org/2000/svg" width="41.018" height="41.008" viewBox="0 0 41.018 41.008">
  <path id="Icon_awesome-instagram" data-name="Icon awesome-instagram" d="M20.508,12.228A10.514,10.514,0,1,0,31.022,22.742,10.5,10.5,0,0,0,20.508,12.228Zm0,17.35a6.835,6.835,0,1,1,6.835-6.835A6.848,6.848,0,0,1,20.508,29.577ZM33.9,11.8a2.452,2.452,0,1,1-2.452-2.452A2.447,2.447,0,0,1,33.9,11.8Zm6.964,2.489c-.156-3.285-.906-6.195-3.313-8.592s-5.307-3.148-8.592-3.313c-3.386-.192-13.534-.192-16.919,0-3.276.156-6.186.906-8.592,3.3S.3,10.993.139,14.278c-.192,3.386-.192,13.534,0,16.919.156,3.285.906,6.195,3.313,8.592s5.307,3.148,8.592,3.313c3.386.192,13.534.192,16.919,0,3.285-.156,6.195-.906,8.592-3.313S40.7,34.482,40.868,31.2c.192-3.386.192-13.525,0-16.91ZM36.494,34.83a6.92,6.92,0,0,1-3.9,3.9c-2.7,1.071-9.1.824-12.088.824s-9.4.238-12.088-.824a6.92,6.92,0,0,1-3.9-3.9c-1.071-2.7-.824-9.1-.824-12.088s-.238-9.4.824-12.088a6.92,6.92,0,0,1,3.9-3.9c2.7-1.071,9.1-.824,12.088-.824s9.4-.238,12.088.824a6.92,6.92,0,0,1,3.9,3.9c1.071,2.7.824,9.1.824,12.088S37.565,32.14,36.494,34.83Z" transform="translate(0.005 -2.238)" fill="#f9f9f9"/>
</svg>