<svg height="512" viewBox="0 0 512 512" width="512" xmlns="http://www.w3.org/2000/svg"><g id="outline"><path d="m220.223 301.666-6.287 12.574a132.665 132.665 0 0 0 -13.936 59.032v90.728a32.036 32.036 0 0 0 32 32h120a32.036 32.036 0 0 0 32-32v-100a259.889 259.889 0 0 0 -10.4-72.8l-31.6-108.342v-30.858a18.206 18.206 0 0 1 16.656-18.027 8 8 0 0 0 7.344-7.973 54.061 54.061 0 0 0 -54-54h-128a8 8 0 0 0 -8 8v32a8 8 0 0 0 8 8h23.741a131.3 131.3 0 0 1 -19.725 61.68l-18.8 30.08a8 8 0 0 0 6.784 12.24h32a8 8 0 0 0 6.51-3.35l16.273-22.782a135.46 135.46 0 0 0 17.217-32.75v18.882a264.442 264.442 0 0 1 -27.777 117.666zm147.777 62.334v100a16.019 16.019 0 0 1 -16 16h-120a16.019 16.019 0 0 1 -16-16v-90.728a116.59 116.59 0 0 1 12.246-51.872l6.287-12.575a280.673 280.673 0 0 0 29.35-116.825h64.117l30.24 103.68a243.9 243.9 0 0 1 9.76 68.32zm-42-188h-62v-16h62zm23.466-56.374a34.48 34.48 0 0 0 -22.5 24.374h-70.966v-32a8 8 0 0 0 -8-8h-24v-16h88a38.064 38.064 0 0 1 37.466 31.626zm-157.466-31.626h16v16h-16zm25.764 100.568-13.881 19.432h-13.449l11.15-17.84a147.28 147.28 0 0 0 22.2-70.16h16.216a118.713 118.713 0 0 1 -22.236 68.568z"/><path d="m328 336h-72a16.019 16.019 0 0 0 -16 16v96a16.019 16.019 0 0 0 16 16h72a16.019 16.019 0 0 0 16-16v-96a16.019 16.019 0 0 0 -16-16zm0 112h-72v-96h72l.01 96z"/><path d="m79.612 20.341h16v19.497h-16z" transform="matrix(.625 -.781 .781 .625 9.385 79.707)"/><path d="m140.51 69.059h16v19.498h-16z" transform="matrix(.625 -.781 .781 .625 -5.802 145.545)"/><path d="m110.062 44.7h16v19.497h-16z" transform="matrix(.625 -.781 .781 .625 1.792 112.626)"/><path d="m116.503 88h19.497v16h-19.497z"/><path d="m77.51 88h19.497v16h-19.497z"/><path d="m38.516 88h19.497v16h-19.497z"/><path d="m77.863 153.91h19.497v16h-19.497z" transform="matrix(.781 -.625 .625 .781 -81.946 90.21)"/><path d="m138.761 105.192h19.498v16h-19.498z" transform="matrix(.781 -.625 .625 .781 -38.167 117.575)"/><path d="m108.314 129.551h19.497v16h-19.497z" transform="matrix(.781 -.625 .625 .781 -60.057 103.895)"/><path d="m331.3 280.337a8 8 0 0 0 -5.363 9.962l2.4 8a8 8 0 1 0 15.324-4.6l-2.4-8a8 8 0 0 0 -9.961-5.362z"/><path d="m314.5 224.337a8 8 0 0 0 -5.363 9.962l9.6 32a8 8 0 1 0 15.324-4.6l-9.6-32a8 8 0 0 0 -9.961-5.362z"/></g></svg>