<svg xmlns="http://www.w3.org/2000/svg" width="43.375" height="37.512" viewBox="0 0 43.375 37.512">
  <g id="cloudy" transform="translate(0 -34.603)">
    <path id="Path_31" data-name="Path 31" d="M34.7,119a11.965,11.965,0,0,0-.655-3.2,8.737,8.737,0,1,0-13.657-7.833,12.039,12.039,0,0,0-8.178,5.867,9.246,9.246,0,1,0-2.968,18H25.631a.847.847,0,1,0,0-1.694H9.246a7.552,7.552,0,1,1,7.117-10.069.847.847,0,0,0,1.6-.565,9.289,9.289,0,0,0-4.192-4.98,10.352,10.352,0,0,1,19.236,4.476,6.412,6.412,0,0,0-2.619.97.847.847,0,1,0,.92,1.423,4.752,4.752,0,1,1,2.576,8.746H32.408a.847.847,0,0,0,0,1.694h1.474A6.447,6.447,0,0,0,34.7,119Zm-12.02-11.25c-.191,0-.381.006-.571.015a7.043,7.043,0,1,1,11.243,6.45A12.057,12.057,0,0,0,22.684,107.753Z" transform="translate(0 -59.73)"/>
    <circle id="Ellipse_6" data-name="Ellipse 6" cx="0.847" cy="0.847" r="0.847" transform="translate(28.173 70.42)"/>
    <path id="Path_32" data-name="Path 32" d="M288.974,38.185a.847.847,0,0,0,1.629-.466l-.716-2.5a.847.847,0,0,0-1.629.466Z" transform="translate(-263.808 0)"/>
    <path id="Path_33" data-name="Path 33" d="M189.925,114.66l2.275,1.262a.847.847,0,1,0,.822-1.482l-2.275-1.262a.847.847,0,0,0-.822,1.482Z" transform="translate(-173.436 -71.822)"/>
    <path id="Path_34" data-name="Path 34" d="M454.343,259.442l-2.275-1.262a.847.847,0,1,0-.822,1.482l2.275,1.262a.847.847,0,1,0,.822-1.481Z" transform="translate(-412.619 -204.539)"/>
    <path id="Path_35" data-name="Path 35" d="M466.633,148.285a.847.847,0,0,0-1.048-.581l-2.5.716a.847.847,0,1,0,.466,1.629l2.5-.716A.847.847,0,0,0,466.633,148.285Z" transform="translate(-423.291 -103.49)"/>
    <path id="Path_36" data-name="Path 36" d="M399.063,52.8a.847.847,0,0,0,1.152-.33l1.262-2.275A.847.847,0,0,0,400,49.371l-1.262,2.275A.847.847,0,0,0,399.063,52.8Z" transform="translate(-364.857 -13.118)"/>
  </g>
</svg>