<svg xmlns="http://www.w3.org/2000/svg" width="35.399" height="29.829" viewBox="0 0 35.399 29.829">
  <g id="shopping-cart_1_" data-name="shopping-cart (1)" transform="translate(0 -40.283)">
    <path id="Path_27" data-name="Path 27" d="M34.874,50.293a2.446,2.446,0,0,0-1.924-.923H26.132l-3.7-8.465a1.037,1.037,0,1,0-1.9.83l3.334,7.635H11.53l3.334-7.635a1.037,1.037,0,1,0-1.9-.83l-3.7,8.465H2.45a2.446,2.446,0,0,0-1.924.923,2.388,2.388,0,0,0-.465,2.031L3.7,68.226A2.43,2.43,0,0,0,6.09,70.112H29.309A2.43,2.43,0,0,0,31.7,68.226l3.641-15.9a2.388,2.388,0,0,0-.465-2.031ZM29.309,68.038H6.09a.371.371,0,0,1-.367-.275l-3.641-15.9a.317.317,0,0,1,.065-.275.377.377,0,0,1,.3-.141H8.361l-.272.622a1.037,1.037,0,1,0,1.9.83l.634-1.452h14.15l.634,1.452a1.037,1.037,0,0,0,1.9-.83l-.272-.622H32.95a.377.377,0,0,1,.3.141.317.317,0,0,1,.065.275l-3.641,15.9a.371.371,0,0,1-.367.275Z" transform="translate(0)" fill="#c75313"/>
    <path id="Path_28" data-name="Path 28" d="M152.037,266.717A1.037,1.037,0,0,0,151,267.754v7.605a1.037,1.037,0,0,0,2.074,0v-7.605A1.037,1.037,0,0,0,152.037,266.717Z" transform="translate(-140.56 -210.779)" fill="#c75313"/>
    <path id="Path_29" data-name="Path 29" d="M242.037,266.717A1.037,1.037,0,0,0,241,267.754v7.605a1.037,1.037,0,0,0,2.074,0v-7.605A1.037,1.037,0,0,0,242.037,266.717Z" transform="translate(-224.337 -210.779)" fill="#c75313"/>
    <path id="Path_30" data-name="Path 30" d="M332.037,266.717A1.037,1.037,0,0,0,331,267.754v7.605a1.037,1.037,0,0,0,2.074,0v-7.605A1.037,1.037,0,0,0,332.037,266.717Z" transform="translate(-308.115 -210.779)" fill="#c75313"/>
  </g>
</svg>
