<svg xmlns="http://www.w3.org/2000/svg" width="31.56" height="39.77" viewBox="0 0 31.56 39.77">
  <g id="Component_26_1" data-name="Component 26 – 1" transform="translate(0.999 1.44)">
    <path id="Path_58" data-name="Path 58" d="M796.751,357.2a8.626,8.626,0,0,1-17.251,0c0-4.764,8.626-13.7,8.626-13.7S796.751,352.435,796.751,357.2Z" transform="translate(-767.19 -328.495)" fill="none" stroke="#000" stroke-miterlimit="10" stroke-width="2"/>
    <path id="Path_57" data-name="Path 57" d="M789.288,351.278a4.893,4.893,0,1,1-9.787,0c0-2.7,4.893-7.778,4.893-7.778S789.288,348.57,789.288,351.278Z" transform="translate(-779.5 -334.656)" fill="none" stroke="#000" stroke-miterlimit="10" stroke-width="2"/>
    <path id="Path_59" data-name="Path 59" d="M785.935,348.61a3.218,3.218,0,1,1-6.435,0c0-1.777,3.217-5.11,3.217-5.11S785.935,346.833,785.935,348.61Z" transform="translate(-766.317 -343.5)" fill="none" stroke="#000" stroke-miterlimit="10" stroke-width="2"/>
  </g>
</svg>
