<svg id="Component_28_1" data-name="Component 28 – 1" xmlns="http://www.w3.org/2000/svg" width="74" height="37.763" viewBox="0 0 74 37.763">
  <text id="Plant-IT" transform="translate(0 33.763)" fill="#f9f9f9" font-size="20" font-family="Lato-Bold, Lato" font-weight="700"><tspan x="0" y="0">Plant-IT</tspan></text>
  <g id="leaf" transform="translate(56.47)">
    <path id="Path_9" data-name="Path 9" d="M17.5.246A.4.4,0,0,0,17.132,0C1.677,0,0,6.407,0,9.161c0,3.574,2.721,5.975,6.771,5.975,5.115,0,6.187-4.868,6.762-7.483A13.489,13.489,0,0,1,17.413.68.4.4,0,0,0,17.5.246Z" transform="translate(0)" fill="#40c479"/>
    <path id="Path_10" data-name="Path 10" d="M.4,120.207a.4.4,0,0,1-.4-.4c0-2.368,4.107-9.968,10.581-13.1a.4.4,0,1,1,.347.717h0C4.394,110.589.8,117.947.8,119.808A.4.4,0,0,1,.4,120.207Z" transform="translate(0 -102.68)"/>
  </g>
</svg>
