<svg xmlns="http://www.w3.org/2000/svg" width="18.007" height="24.647" viewBox="0 0 18.007 24.647">
  <g id="potted-plant_1_" data-name="potted-plant (1)" transform="translate(-11.426 -1.999)">
    <path id="Path_52" data-name="Path 52" d="M27.341,53.759H18.133a.352.352,0,0,1-.346-.29L16.129,44.26a.352.352,0,0,1,.346-.414H29a.352.352,0,0,1,.346.414l-1.657,9.209A.352.352,0,0,1,27.341,53.759Zm-8.914-.7h8.62l1.532-8.5H16.9Z" transform="translate(-3.043 -27.113)"/>
    <path id="Path_53" data-name="Path 53" d="M27.716,40.216h-14.7a.552.552,0,0,1-.552-.552V37.707a.552.552,0,0,1,.552-.551h14.7a.552.552,0,0,1,.552.551v1.957A.552.552,0,0,1,27.716,40.216Zm-14.55-.7h14.4V37.86h-14.4Z" transform="translate(-0.671 -22.779)"/>
    <path id="Path_54" data-name="Path 54" d="M34.763,22.167h-.027a.352.352,0,0,1-.325-.377,11.9,11.9,0,0,1,.375-2.2,12.218,12.218,0,0,1,4.391-6.578.352.352,0,1,1,.428.559,11.513,11.513,0,0,0-4.139,6.2,11.219,11.219,0,0,0-.352,2.075A.352.352,0,0,1,34.763,22.167Z" transform="translate(-14.892 -7.086)"/>
    <path id="Path_55" data-name="Path 55" d="M41.154,10.938a6.379,6.379,0,0,1-2.977-.871.352.352,0,0,1-.155-.167,5.509,5.509,0,0,1,.242-4.8C39.449,3.2,42.054,2.156,46.008,2a.345.345,0,0,1,.262.1.352.352,0,0,1,.1.261c-.008.256-.238,6.292-3.345,8.083a3.693,3.693,0,0,1-1.876.493ZM38.623,9.507c1.612.839,2.975.951,4.053.329,2.355-1.358,2.869-5.782,2.97-7.114-3.486.2-5.765,1.119-6.782,2.749a4.8,4.8,0,0,0-.241,4.035Z" transform="translate(-16.941 0)"/>
    <path id="Path_56" data-name="Path 56" d="M27.291,23.39a.352.352,0,0,1-.325-.217A8.006,8.006,0,0,0,22.537,18.8a.352.352,0,1,1,.262-.654A8.711,8.711,0,0,1,27.615,22.9a.352.352,0,0,1-.325.487Z" transform="translate(-7.056 -10.447)"/>
    <path id="Path_57" data-name="Path 57" d="M15.98,17.974a2.676,2.676,0,0,1-.664-.085c-2.5-.639-3.817-4.738-3.873-4.912a.352.352,0,0,1,.256-.449c2.746-.652,4.741-.429,5.93.661a3.984,3.984,0,0,1,1.105,3.3.352.352,0,0,1-.106.2A3.9,3.9,0,0,1,15.98,17.974Zm-3.736-4.847c.368.98,1.514,3.637,3.247,4.079a2.783,2.783,0,0,0,2.557-.938,3.251,3.251,0,0,0-.9-2.564C16.192,12.833,14.543,12.639,12.244,13.127Z" transform="translate(0 -6.586)"/>
  </g>
</svg>