<svg height="481.60068pt" viewBox="0 0 481.60068 481.60068" width="481.60068pt" xmlns="http://www.w3.org/2000/svg"><path d="m184.578125 32.578125c-83.949219 0-152 68.050781-152 152 0 83.945313 68.050781 152 152 152 83.945313 0 152-68.054687 152-152-.09375-83.910156-68.09375-151.910156-152-152zm0 288c-75.113281 0-136-60.890625-136-136 0-75.113281 60.886719-136 136-136 75.109375 0 136 60.886719 136 136-.085937 75.074219-60.925781 135.914063-136 136zm0 0"/><path d="m469.761719 413.191406-90.511719-90.503906c-3.125-3.121094-8.1875-3.121094-11.3125 0l-5.648438 5.648438-31.824218-31.824219c59.136718-77.027344 48.351562-186.726563-24.648438-250.761719-73.003906-64.039062-183.171875-60.441406-251.839844 8.226562-68.667968 68.667969-72.265624 178.835938-8.226562 251.839844 64.035156 73 173.734375 83.785156 250.761719 24.648438l31.824219 31.824218-5.648438 5.648438c-3.121094 3.125-3.121094 8.1875 0 11.3125l90.503906 90.511719c10.089844 10.179687 24.855469 14.179687 38.707032 10.492187 13.847656-3.691406 24.664062-14.507812 28.355468-28.355468 3.6875-13.851563-.3125-28.617188-10.492187-38.707032zm-453.183594-228.613281c0-92.785156 75.214844-168 168-168 92.78125 0 168 75.214844 168 168 0 92.78125-75.21875 168-168 168-92.742187-.101563-167.898437-75.257813-168-168zm303.574219 124.246094 30.824218 30.792969-11.359374 11.359374-30.792969-30.792968c3.9375-3.625 7.710937-7.414063 11.328125-11.359375zm138.296875 149.601562c-9.496094 9.066407-24.445313 9.066407-33.945313 0l-84.847656-84.832031 33.9375-33.9375 84.855469 84.847656c9.375 9.375 9.375 24.570313 0 33.945313zm0 0"/><path d="m240.578125 224.578125h-48v-16h16c22.078125-.027344 39.972656-17.921875 40-40v-16c0-4.417969-3.582031-8-8-8h-16c-12.640625.035156-24.515625 6.0625-32 16.246094v-12.933594l8.964844-8.96875c15.597656-15.632813 15.597656-40.9375 0-56.570313l-11.308594-11.3125c-3.125-3.121093-8.191406-3.121093-11.3125 0l-11.3125 11.3125c-15.59375 15.632813-15.59375 40.9375 0 56.570313l8.96875 8.96875v12.933594c-7.488281-10.183594-19.363281-16.210938-32-16.246094h-16c-4.417969 0-8 3.582031-8 8v16c.023437 22.078125 17.917969 39.972656 40 40h16v16h-48c-11.980469-.035156-22.136719 8.792969-23.777344 20.65625-1.640625 11.867187 5.742188 23.117187 17.28125 26.335937l4.734375 18.949219 15.519532-3.886719-3.511719-14.054687h91.503906l-3.511719 14.054687 15.519532 3.886719 4.738281-18.949219c11.535156-3.21875 18.917969-14.46875 17.277343-26.335937-1.640624-11.863281-11.796874-20.691406-23.773437-20.65625zm-40-40c0-13.257813 10.742187-24 24-24h8v8c0 13.253906-10.746094 24-24 24h-8zm-32 8h-8c-13.257813 0-24-10.746094-24-24v-8h8c13.253906 0 24 10.742187 24 24zm10.34375-98.914063 5.65625-5.65625 5.65625 5.65625c9.351563 9.382813 9.351563 24.5625 0 33.945313l-5.65625 5.65625-5.65625-5.65625c-9.355469-9.382813-9.355469-24.5625 0-33.945313zm61.65625 162.914063h-112c-4.417969 0-8-3.582031-8-8s3.582031-8 8-8h112c4.417969 0 8 3.582031 8 8s-3.582031 8-8 8zm0 0"/></svg>