<svg xmlns="http://www.w3.org/2000/svg" width="21.999" height="20.499" viewBox="0 0 21.999 20.499"><path id="Icon_ionic-ios-star" data-name="Icon ionic-ios-star" d="M22.452,10.125H15.557l-2.1-6.253a.759.759,0,0,0-1.425,0l-2.1,6.253H3a.752.752,0,0,0-.75.75A.551.551,0,0,0,2.264,11a.721.721,0,0,0,.314.53l5.667,3.994L6.07,21.848a.752.752,0,0,0,.258.844.725.725,0,0,0,.422.183.919.919,0,0,0,.469-.169l5.531-3.942,5.531,3.942a.878.878,0,0,0,.469.169.673.673,0,0,0,.417-.183.743.743,0,0,0,.258-.844l-2.175-6.323,5.62-4.031.136-.117a.786.786,0,0,0,.244-.5A.794.794,0,0,0,22.452,10.125Z" transform="translate(-1.75 -2.875)" fill="none" stroke="#fdbb38" stroke-width="1"/></svg>