<svg xmlns="http://www.w3.org/2000/svg" width="25.294" height="26.001" viewBox="0 0 25.294 26.001">
  <path id="Icon_material-rate-review" data-name="Icon material-rate-review" d="M24.864,3H5.429A2.426,2.426,0,0,0,3.012,5.429L3,27.293l4.859-4.859H24.864a2.436,2.436,0,0,0,2.429-2.429V5.429A2.436,2.436,0,0,0,24.864,3ZM7.859,17.576v-3l8.357-8.357a.6.6,0,0,1,.862,0l2.15,2.15a.6.6,0,0,1,0,.862l-8.369,8.345Zm14.576,0h-9.11l2.429-2.429h6.681Z" transform="translate(-2.499 -2.5)" fill="none" stroke="#000" stroke-width="1"/>
</svg>
