<svg xmlns="http://www.w3.org/2000/svg" width="35.704" height="25.293" viewBox="0 0 35.704 25.293">
  <path id="Icon_awesome-truck-moving" data-name="Icon awesome-truck-moving" d="M33.69,13.382,30.518,10.21A3.472,3.472,0,0,0,28.062,9.2H26.028V3.985A1.733,1.733,0,0,0,24.293,2.25H1.735A1.733,1.733,0,0,0,0,3.985V22.2a4.327,4.327,0,0,0,7.808,2.581A4.327,4.327,0,0,0,15.617,22.2a4.57,4.57,0,0,0-.087-.868h8.85a4.168,4.168,0,0,0-.087.868,4.338,4.338,0,1,0,8.676,0,4.57,4.57,0,0,0-.087-.868h.954a.87.87,0,0,0,.868-.868V15.833A3.459,3.459,0,0,0,33.69,13.382ZM4.338,23.94A1.735,1.735,0,1,1,6.073,22.2,1.74,1.74,0,0,1,4.338,23.94Zm6.941,0A1.735,1.735,0,1,1,13.014,22.2,1.74,1.74,0,0,1,11.279,23.94ZM26.028,11.794h2.033a.861.861,0,0,1,.613.255L31.022,14.4H26.028Zm2.6,12.146A1.735,1.735,0,1,1,30.366,22.2,1.74,1.74,0,0,1,28.631,23.94Z" transform="translate(0.5 -1.75)" fill="none" stroke="#000" stroke-width="1"/>
</svg>
