<svg xmlns="http://www.w3.org/2000/svg" width="24.424" height="30.757" viewBox="0 0 24.424 30.757">
  <g id="Component_26_1" data-name="Component 26 – 1" transform="translate(1 1.44)">
    <path id="Path_58" data-name="Path 58" d="M792.586,353.892a6.543,6.543,0,0,1-13.086,0c0-3.614,6.543-10.392,6.543-10.392S792.586,350.278,792.586,353.892Z" transform="translate(-770.162 -332.118)" fill="none" stroke="#0abdff" stroke-miterlimit="10" stroke-width="2"/>
    <path id="Path_57" data-name="Path 57" d="M786.925,349.4a3.712,3.712,0,0,1-7.424,0c0-2.05,3.712-5.9,3.712-5.9S786.925,347.346,786.925,349.4Z" transform="translate(-779.5 -336.791)" fill="none" stroke="#0abdff" stroke-miterlimit="10" stroke-width="2"/>
    <path id="Path_59" data-name="Path 59" d="M784.381,347.376a2.441,2.441,0,1,1-4.881,0c0-1.348,2.44-3.876,2.44-3.876S784.381,346.028,784.381,347.376Z" transform="translate(-769.5 -343.5)" fill="none" stroke="#0abdff" stroke-miterlimit="10" stroke-width="2"/>
  </g>
</svg>